P3
# Created by GIMP version 2.10.36 PNM plug-in
18 24
255
51
149
255
51
149
255
51
149
255
51
149
255
51
149
255
51
149
255
51
149
255
51
149
255
51
149
255
51
149
255
51
149
255
51
149
255
51
149
255
51
149
255
51
149
255
51
149
255
51
149
255
51
149
255
51
149
255
51
149
255
51
149
255
51
149
255
51
149
255
51
149
255
51
149
255
51
149
255
51
149
255
51
149
255
51
149
255
51
149
255
51
149
255
51
149
255
51
149
255
51
149
255
51
149
255
51
149
255
51
149
255
51
149
255
51
149
255
51
149
255
66
73
80
66
73
80
66
73
80
51
149
255
51
149
255
51
149
255
51
149
255
51
149
255
51
149
255
51
149
255
51
149
255
51
149
255
51
149
255
51
149
255
51
149
255
51
149
255
51
149
255
66
73
80
211
228
235
211
228
235
211
228
235
66
73
80
51
149
255
51
149
255
51
149
255
51
149
255
51
149
255
51
149
255
51
149
255
51
149
255
51
149
255
51
149
255
51
149
255
51
149
255
66
73
80
206
157
56
206
157
56
211
228
235
60
61
63
211
228
235
66
73
80
51
149
255
51
149
255
51
149
255
51
149
255
51
149
255
51
149
255
51
149
255
51
149
255
51
149
255
51
149
255
51
149
255
66
73
80
206
157
56
206
157
56
211
228
235
60
61
63
211
228
235
66
73
80
51
149
255
51
149
255
51
149
255
51
149
255
51
149
255
51
149
255
51
149
255
51
149
255
51
149
255
51
149
255
66
73
80
181
141
57
206
157
56
206
157
56
211
228
235
208
209
211
211
228
235
66
73
80
51
149
255
51
149
255
51
149
255
51
149
255
51
149
255
51
149
255
51
149
255
51
149
255
51
149
255
51
149
255
66
73
80
66
73
80
66
73
80
66
73
80
66
73
80
211
228
235
211
228
235
66
73
80
51
149
255
51
149
255
51
149
255
51
149
255
51
149
255
51
149
255
51
149
255
51
149
255
51
149
255
51
149
255
51
149
255
51
149
255
51
149
255
51
149
255
66
73
80
211
228
235
242
242
242
66
73
80
51
149
255
51
149
255
51
149
255
51
149
255
51
149
255
51
149
255
51
149
255
51
149
255
51
149
255
51
149
255
51
149
255
51
149
255
51
149
255
51
149
255
66
73
80
211
228
235
208
209
211
66
73
80
51
149
255
51
149
255
51
149
255
51
149
255
51
149
255
51
149
255
66
73
80
66
73
80
51
149
255
51
149
255
51
149
255
51
149
255
51
149
255
51
149
255
66
73
80
242
242
242
211
228
235
211
228
235
66
73
80
66
73
80
66
73
80
66
73
80
66
73
80
66
73
80
211
228
235
66
73
80
51
149
255
51
149
255
51
149
255
51
149
255
51
149
255
51
149
255
66
73
80
208
209
211
211
228
235
208
209
211
211
228
235
211
228
235
211
228
235
242
242
242
211
228
235
211
228
235
211
228
235
66
73
80
51
149
255
51
149
255
51
149
255
51
149
255
51
149
255
51
149
255
66
73
80
208
209
211
211
228
235
242
242
242
211
228
235
211
228
235
211
228
235
211
228
235
211
228
235
211
228
235
66
73
80
51
149
255
51
149
255
51
149
255
51
149
255
51
149
255
51
149
255
51
149
255
66
73
80
211
228
235
211
228
235
211
228
235
211
228
235
211
228
235
211
228
235
211
228
235
211
228
235
211
228
235
66
73
80
51
149
255
51
149
255
51
149
255
51
149
255
51
149
255
51
149
255
51
149
255
66
73
80
211
228
235
211
228
235
211
228
235
211
228
235
211
228
235
211
228
235
211
228
235
211
228
235
66
73
80
51
149
255
51
149
255
51
149
255
51
149
255
51
149
255
51
149
255
51
149
255
51
149
255
51
149
255
66
73
80
211
228
235
211
228
235
211
228
235
211
228
235
211
228
235
211
228
235
66
73
80
51
149
255
51
149
255
51
149
255
51
149
255
51
149
255
51
149
255
51
149
255
51
149
255
51
149
255
51
149
255
51
149
255
66
73
80
211
228
235
211
228
235
211
228
235
211
228
235
66
73
80
51
149
255
51
149
255
51
149
255
51
149
255
51
149
255
51
149
255
51
149
255
51
149
255
51
149
255
51
149
255
51
149
255
51
149
255
51
149
255
66
73
80
206
157
56
66
73
80
206
157
56
66
73
80
51
149
255
51
149
255
51
149
255
51
149
255
51
149
255
51
149
255
51
149
255
51
149
255
51
149
255
51
149
255
51
149
255
51
149
255
51
149
255
66
73
80
206
157
56
66
73
80
206
157
56
66
73
80
51
149
255
51
149
255
51
149
255
51
149
255
51
149
255
51
149
255
51
149
255
51
149
255
51
149
255
51
149
255
51
149
255
51
149
255
66
73
80
206
157
56
206
157
56
66
73
80
206
157
56
206
157
56
66
73
80
51
149
255
51
149
255
51
149
255
51
149
255
51
149
255
51
149
255
51
149
255
51
149
255
51
149
255
51
149
255
51
149
255
66
73
80
66
73
80
66
73
80
66
73
80
66
73
80
66
73
80
66
73
80
51
149
255
51
149
255
51
149
255
51
149
255
51
149
255
51
149
255
51
149
255
51
149
255
51
149
255
51
149
255
51
149
255
51
149
255
51
149
255
51
149
255
51
149
255
51
149
255
51
149
255
51
149
255
51
149
255
51
149
255
51
149
255
51
149
255
51
149
255
51
149
255
51
149
255
51
149
255
51
149
255
51
149
255
51
149
255
51
149
255
51
149
255
51
149
255
51
149
255
51
149
255
51
149
255
51
149
255
51
149
255
51
149
255
51
149
255
51
149
255
51
149
255
51
149
255
51
149
255
51
149
255
51
149
255
51
149
255
51
149
255
51
149
255
51
149
255
51
149
255
51
149
255
51
149
255
51
149
255
51
149
255
51
149
255
51
149
255
51
149
255
51
149
255
